<svg id="visual" viewBox="0 0 900 600" width="900" height="600" xmlns="http://www.w3.org/2000/svg" xmlns:xlink="http://www.w3.org/1999/xlink" version="1.1"><rect x="0" y="0" width="900" height="600" fill="#FCAF3C"></rect><defs><linearGradient id="grad1_0" x1="33.3%" y1="0%" x2="100%" y2="100%"><stop offset="20%" stop-color="#001122" stop-opacity="1"></stop><stop offset="80%" stop-color="#001122" stop-opacity="1"></stop></linearGradient></defs><defs><linearGradient id="grad1_1" x1="33.3%" y1="0%" x2="100%" y2="100%"><stop offset="20%" stop-color="#001122" stop-opacity="1"></stop><stop offset="80%" stop-color="#31294c" stop-opacity="1"></stop></linearGradient></defs><defs><linearGradient id="grad1_2" x1="33.3%" y1="0%" x2="100%" y2="100%"><stop offset="20%" stop-color="#753a67" stop-opacity="1"></stop><stop offset="80%" stop-color="#31294c" stop-opacity="1"></stop></linearGradient></defs><defs><linearGradient id="grad1_3" x1="33.3%" y1="0%" x2="100%" y2="100%"><stop offset="20%" stop-color="#753a67" stop-opacity="1"></stop><stop offset="80%" stop-color="#ba4e69" stop-opacity="1"></stop></linearGradient></defs><defs><linearGradient id="grad1_4" x1="33.3%" y1="0%" x2="100%" y2="100%"><stop offset="20%" stop-color="#ec7556" stop-opacity="1"></stop><stop offset="80%" stop-color="#ba4e69" stop-opacity="1"></stop></linearGradient></defs><defs><linearGradient id="grad1_5" x1="33.3%" y1="0%" x2="100%" y2="100%"><stop offset="20%" stop-color="#ec7556" stop-opacity="1"></stop><stop offset="80%" stop-color="#fcaf3c" stop-opacity="1"></stop></linearGradient></defs><defs><linearGradient id="grad2_0" x1="0%" y1="0%" x2="66.7%" y2="100%"><stop offset="20%" stop-color="#001122" stop-opacity="1"></stop><stop offset="80%" stop-color="#001122" stop-opacity="1"></stop></linearGradient></defs><defs><linearGradient id="grad2_1" x1="0%" y1="0%" x2="66.7%" y2="100%"><stop offset="20%" stop-color="#31294c" stop-opacity="1"></stop><stop offset="80%" stop-color="#001122" stop-opacity="1"></stop></linearGradient></defs><defs><linearGradient id="grad2_2" x1="0%" y1="0%" x2="66.7%" y2="100%"><stop offset="20%" stop-color="#31294c" stop-opacity="1"></stop><stop offset="80%" stop-color="#753a67" stop-opacity="1"></stop></linearGradient></defs><defs><linearGradient id="grad2_3" x1="0%" y1="0%" x2="66.7%" y2="100%"><stop offset="20%" stop-color="#ba4e69" stop-opacity="1"></stop><stop offset="80%" stop-color="#753a67" stop-opacity="1"></stop></linearGradient></defs><defs><linearGradient id="grad2_4" x1="0%" y1="0%" x2="66.7%" y2="100%"><stop offset="20%" stop-color="#ba4e69" stop-opacity="1"></stop><stop offset="80%" stop-color="#ec7556" stop-opacity="1"></stop></linearGradient></defs><defs><linearGradient id="grad2_5" x1="0%" y1="0%" x2="66.7%" y2="100%"><stop offset="20%" stop-color="#fcaf3c" stop-opacity="1"></stop><stop offset="80%" stop-color="#ec7556" stop-opacity="1"></stop></linearGradient></defs><g transform="translate(900, 0)"><path d="M0 540.8C-81.1 543.1 -162.1 545.4 -207 499.7C-251.8 453.9 -260.4 360.1 -308.3 308.3C-356.2 256.5 -443.4 246.8 -488.7 202.4C-534 158.1 -537.4 79 -540.8 0L0 0Z" fill="#f89048"></path><path d="M0 450.7C-67.6 452.6 -135.1 454.5 -172.5 416.4C-209.8 378.2 -217 300.1 -256.9 256.9C-296.8 213.8 -369.5 205.7 -407.3 168.7C-445 131.7 -447.9 65.9 -450.7 0L0 0Z" fill="#d65e61"></path><path d="M0 360.6C-54 362.1 -108.1 363.6 -138 333.1C-167.9 302.6 -173.6 240 -205.5 205.5C-237.5 171 -295.6 164.5 -325.8 135C-356 105.4 -358.3 52.7 -360.6 0L0 0Z" fill="#99426b"></path><path d="M0 270.4C-40.5 271.6 -81.1 272.7 -103.5 249.8C-125.9 226.9 -130.2 180 -154.1 154.1C-178.1 128.3 -221.7 123.4 -244.4 101.2C-267 79 -268.7 39.5 -270.4 0L0 0Z" fill="#52325d"></path><path d="M0 180.3C-27 181 -54 181.8 -69 166.6C-83.9 151.3 -86.8 120 -102.8 102.8C-118.7 85.5 -147.8 82.3 -162.9 67.5C-178 52.7 -179.1 26.3 -180.3 0L0 0Z" fill="#151e38"></path><path d="M0 90.1C-13.5 90.5 -27 90.9 -34.5 83.3C-42 75.6 -43.4 60 -51.4 51.4C-59.4 42.8 -73.9 41.1 -81.5 33.7C-89 26.3 -89.6 13.2 -90.1 0L0 0Z" fill="#001122"></path></g><g transform="translate(0, 600)"><path d="M0 -540.8C72.6 -534.8 145.1 -528.8 207 -499.7C268.8 -470.5 320 -418.3 365.6 -365.6C411.2 -312.8 451.2 -259.6 479.5 -198.6C507.8 -137.6 524.3 -68.8 540.8 0L0 0Z" fill="#f89048"></path><path d="M0 -450.7C60.5 -445.7 120.9 -440.7 172.5 -416.4C224 -392.1 266.6 -348.6 304.6 -304.6C342.6 -260.7 376 -216.4 399.6 -165.5C423.1 -114.7 436.9 -57.3 450.7 0L0 0Z" fill="#d65e61"></path><path d="M0 -360.6C48.4 -356.5 96.7 -352.5 138 -333.1C179.2 -313.7 213.3 -278.9 243.7 -243.7C274.1 -208.6 300.8 -173.1 319.7 -132.4C338.5 -91.7 349.5 -45.9 360.6 0L0 0Z" fill="#99426b"></path><path d="M0 -270.4C36.3 -267.4 72.6 -264.4 103.5 -249.8C134.4 -235.3 160 -209.2 182.8 -182.8C205.6 -156.4 225.6 -129.8 239.7 -99.3C253.9 -68.8 262.2 -34.4 270.4 0L0 0Z" fill="#52325d"></path><path d="M0 -180.3C24.2 -178.3 48.4 -176.3 69 -166.6C89.6 -156.8 106.7 -139.4 121.9 -121.9C137.1 -104.3 150.4 -86.5 159.8 -66.2C169.3 -45.9 174.8 -22.9 180.3 0L0 0Z" fill="#151e38"></path><path d="M0 -90.1C12.1 -89.1 24.2 -88.1 34.5 -83.3C44.8 -78.4 53.3 -69.7 60.9 -60.9C68.5 -52.1 75.2 -43.3 79.9 -33.1C84.6 -22.9 87.4 -11.5 90.1 0L0 0Z" fill="#001122"></path></g></svg>